<svg width="24" height="25" viewBox="0 0 24 25" fill="none" xmlns="http://www.w3.org/2000/svg">
<path fill-rule="evenodd" clip-rule="evenodd" d="M10.7463 0.75C5.22349 0.75 0.746338 5.22715 0.746338 10.75C0.746338 16.2728 5.22349 20.75 10.7463 20.75C12.8913 20.75 14.8786 20.0746 16.5071 18.925L16.5392 18.9571L21.0392 23.4571L21.7463 24.1642L23.1606 22.75L22.4534 22.0429L18.0215 17.6109C19.7108 15.8203 20.7463 13.4061 20.7463 10.75C20.7463 5.22715 16.2692 0.75 10.7463 0.75ZM2.74634 10.75C2.74634 6.33172 6.32806 2.75 10.7463 2.75C15.1646 2.75 18.7463 6.33172 18.7463 10.75C18.7463 15.1683 15.1646 18.75 10.7463 18.75C6.32806 18.75 2.74634 15.1683 2.74634 10.75Z" fill="black"/>
</svg>
